<svg version="1.1" id="Layer_1" xmlns="http://www.w3.org/2000/svg" x="0" y="0" viewBox="0 0 880.7 355.2" xml:space="preserve"><style>.st4,.st5{fill-rule:evenodd;clip-rule:evenodd;fill:#ffba4a}.st5{fill:#ff8244}.st8{fill:#e5eaed}</style><path d="M131 245.9c-21-36.4-.7-42.8-45.1-42.8 0 14.5 3.7 57.6 21 63.5 12 4 36 .1 24.1-20.7z" fill-rule="evenodd" clip-rule="evenodd" fill="#00c9af"/><path d="M290.6 203.3c0 19.6-28.2 59.7 1.1 66.6 25.5 6 32.6-51.5 32.6-66.5-11.3-.1-22.5-.1-33.7-.1z" fill-rule="evenodd" clip-rule="evenodd" fill="#fd4848"/><path d="M120.3 191.9c4.7-35.3 14.8-29.2-18.4-48.4-10.4 18-16 38.8-16 59.6 17.9 0 32 6.8 34.4-11.2z" fill-rule="evenodd" clip-rule="evenodd" fill="#8ae7d3"/><path d="M101.9 143.5c26.4 15.3 21.4 20.9 42.8-.8 20.2-20.6 15.8-16.8.8-42.8-18 10.4-33.2 25.6-43.6 43.6z" fill-rule="evenodd" clip-rule="evenodd" fill="#ffd777"/><path class="st4" d="M145.5 99.9c15.2 26.4 8.1 29 37.6 20.7 27.6-7.8 22-6.5 22-36.6-20.3 0-41.9 5.7-59.6 15.9z"/><path class="st4" d="M205.2 84c0 30.4-7.2 28.1 22.1 36.7 27.1 7.9 23 4.4 37.5-20.7-17.7-10.2-39.2-16-59.6-16z"/><path class="st5" d="M264.8 100c-15.3 26.4-21 21.4.8 42.8 20.5 20.2 16.8 15.8 42.8.9-10.5-18.1-25.6-33.3-43.6-43.7z"/><path class="st5" d="M308.3 143.7c-25.1 14.4-31.4 10.8-20.4 40.3 8.9 23.8 6.8 19.3 36.3 19.3 0-20.8-5.5-41.6-15.9-59.6z"/><path d="M202.6 212.5l94.8 15.6c-21.7-8.2-43.2-17.7-65.3-24.8-6.2-2-19-11-24.6-9.3-6.5 1.9-21.9 15.7-4.9 18.5z" fill-rule="evenodd" clip-rule="evenodd" fill="gray"/><path d="M226.1 216.3c-39.8.4-32.5-33.8 3.7-13.9-1-31.9-48.7-29.8-48.7.8 0 23.2 31.8 34.3 45 13.1z" fill-rule="evenodd" clip-rule="evenodd" fill="#e6e6e6"/><path d="M120.8 123.7c3.5 0 7.3-4.4 3.5-8.3-6.8-7-12.2 8.3-3.5 8.3z"/><path d="M328 187.1c-6.1-46.8-39.6-87.3-84.4-101.9-15.8-5.2-127.1 1.1-111.3 23.4 3.5 4.9 24.3-1.6 23.5 18.8-.8 20.8-33.9 27.4-47.2 14.3 6.5-4.4 8.6-10 6.3-16.7C92.6 107.2 82.1 231.7 89 246.7c6.5 14.2 18.6 37.8 38.2 26.4 22.7-13.3-2.7-53-2.3-71.7 2.5-112.5 179.9-93.5 159.5 16.5-14.8-5.6-35.4-9.9-48.6-18.4-14.3-9.3-12-32.8-38.2-24.9-15.2 4.6-25.2 20.2-21.2 36.1 6.9 27.2 77.1 15 104.7 19.6-7.6 21.1-11.3 58.2 24.7 40 22.7-11.4 24.9-62.4 22.2-83.2zm-201.2 61.2c8.7 15.2-8.9 17.1-17.1 14.7-14-4.1-18.4-43.7-18.8-55.1 32.3-9.8 24 19.8 35.9 40.4zm-11.3-57c-1.4 10.2-14.3 9.8-24.6 6.9.7-16.4 5.4-33.6 12.9-48.1 29.2 7.3 14.5 20.1 11.7 41.2zm75.4 26c-21.2-21.2 19.8-48.7 32.1-22.6-31.5-20.6-44.3 27-6.7 25-7.7 5.3-18.5 4.5-25.4-2.4zm36-5.8c-4.1-.6-37.6-13.6-22.1-13.2 12.3.3 34.1 12.7 45.7 17.1l-23.6-3.9zM210 113c-1.7-6.9 0-16.9 0-24.1 16.4.7 33.5 5.2 48.1 12.9-7.5 31.7-25.3 12.5-48.1 11.2zm-57.8-11.3c14.6-7.6 31.7-12.1 48.1-12.8 9.6 32.8-40.1 46-48.1 12.8zm102.2 25.9c2-6.9 8.5-14.6 12.1-20.9 14.1 9 26.2 21.1 35.2 35.3-22.4 23.6-28.2-1.9-47.3-14.4zm31.2 34.8c5.2-5 14.6-8.4 20.9-12 7.5 14.5 12.1 31.8 12.8 48.1-31.2 7.6-22.5-14.1-33.7-36.1zm18.4 98c-14.6 25.4-17.6-14.4-17-20.2 2-20 11.7 1.8 15.1-10.9 2.1-7.9-21.4-32.8 17.2-21.2-.8 18.1-6.3 36.7-15.3 52.3z"/><path d="M133.5 198.3c-6.5 3.2-6.5 6.5 0 9.7 13.1-6.4 0-3.3 0-9.7zM173.6 138.9c-.8.6-15.2-7-8.4 4.7 1.3 1.1 14.4 5.8 8.4-4.7zM240.8 146.2c3.9 0 7.9-6 2.5-9.1-7.8-4.6-9.7 9.1-2.5 9.1zM276.6 208.1c6.5-3.2 6.5-6.5 0-9.7-13.1 6.4 0 3.3 0 9.7zM479.7 225.8c7 3.3 48.4-33.3 51.1-39.2 6.8-14.8 6.8-3.3 0-18.1-2-4.4-39.8-39.3-46.3-38.6-2.6.3-16.6 24-16.6 25.7 0 10.1 20.2 3.8 18.2-12.5l41.4 34.5-41.4 34.5c5.5-35.8-57.9-6.6-75.3-16.8-8.9-5.2-11.9-5.6-8.2-22.9 2.8-13.3 22-12.4 22-17 0-19.5-28.9 3.3-31 7.4-5.8 11.1-2.2 35.1 6.7 41.5 12.7 9.1 44.6-5 59.7 0 1.3.4 15.5-1.7 17.1 0 3.7 4.3-4.6 18.1 2.6 21.5z"/><path d="M446.7 162.4c15.7 0-5.4-20.1-3.3-9.9.4 1.8-7.7 9.9 3.3 9.9z"/><path class="st8" d="M787.6 259.4c-.6.9-1.3 1.7-2.1 2.5.8-.8 1.5-1.7 2.1-2.5zM615.2 261.8zM617.3 263.7zM783 263.9c-.9.7-1.9 1.2-2.9 1.7 1-.4 2-1 2.9-1.7zM771.6 85.7c-42.3 0-86.3-4.8-125.4 0-36.1 4.4-35.4 15.9-36.7 48.9-1.2 29.9 0 60.1 0 90 12.5-21.3 23.4-45.2 38.2-64.8 18.1-24 20.8-24.2 39.6-.6 15.8 19.8 15.8 52.6 44.7 49.6 12.1-1.3 15.6-18.7 30.5-16.7 9.8 1.3 21.9 18 28.8 24.4 0-21 14.2-130.8-19.7-130.8zm-31.1 68.5c-22.3 0-22.3-34.5 0-34.5 22.4 0 22.4 34.5 0 34.5zM609.9 252c.1.3.1.5.2.8-.1-.3-.2-.5-.2-.8zM610 252.8c0 .2.1.4.2.6-.1-.2-.1-.4-.2-.6zM609.8 251.5c0 .2.1.3.1.5-.1-.2-.1-.3-.1-.5zM609.4 247.9c0 .8.1 1.6.2 2.4-.1-.9-.2-1.7-.2-2.4zM610.2 253.4c.1.2.1.5.2.7-.1-.3-.1-.5-.2-.7zM609.6 250.2v0zM609.6 250.6c0 .3.1.6.1.9 0-.3 0-.6-.1-.9zM612.1 257.8c.2.4.5.8.7 1.1-.3-.4-.5-.8-.7-1.1zM611.4 256.6c.1.3.3.5.4.8-.1-.3-.2-.6-.4-.8zM611.2 256l.3.6c-.2-.2-.2-.4-.3-.6zM611.8 257.3c.1.1.2.3.2.4 0-.1-.1-.2-.2-.4zM610.9 255.3c.1.2.2.4.3.7-.1-.2-.2-.4-.3-.7zM610.4 254.1c.1.2.1.4.2.6 0-.2-.1-.4-.2-.6zM610.6 254.7z"/><path d="M766.4 193.7c-14.1-12.9-23.7 14-34.4 15.1-21 2.2-17.9-5.8-28.6-19.8-15.8-20.7-19.1-62.4-48-42.3-25.6 17.9-68.9 100.9-29.3 120.7 13.6 6.8 47.3.2 61.7.2 20.9 0 64.3 8.9 83.7 0 35.9-16.5 19.4-51.5-5.1-73.9z" fill="#80e0dc"/><path d="M740.5 119.7c22.3 0 22.3 34.5 0 34.5s-22.3-34.5 0-34.5z" fill="#ffd777"/><path d="M740.5 158.4c27.7 0 27.7-42.8 0-42.8-27.6 0-27.6 42.8 0 42.8zm0-34.5c29.9 0 0 26.4 0 26.2 0 .2-29.9-26.2 0-26.2zM744 248.6c-4.1-10-8.6 5-7 4.2 1-.5 10.1 3.3 7-4.2zM671.5 85.7c3.6 8.7 7.9-2.8 8.2-2.9.6-.3-12.1-6.4-8.2 2.9z"/><path d="M767.3 79.6c-8.6 0-73.3-4.5-73.3 4.4 0 3.5 84.6 3.3 95.3 22.1 12.8 22.5 1.6 75.5 1.6 101.2-6.9-8-21.1-22.3-32.5-22.4-11.7-.1-23.8 21.1-31.9 20.3-16.1-1.7-24.5-38.9-33.7-51.1-38-50.1-59.4 16.1-80.4 51.7 0-26.3-3.5-55.1 0-81 1.5-11.2-1.5-19.5 7.5-28.8 4.6-5 37.1-7.7 37.1-12 0-11.3-36-.8-37.3.1-14.2 9.5-13.1 19.5-16.1 33.6-5.4 25.5 0 58 0 84.1 0 23-6 54.3 16.1 69.5 14.9 10.2 47.5 4.4 63.8 4.4 50.9 0 105.6 15.6 116.2-44.5 5.2-30 15.6-151.6-32.4-151.6zm0 187.3c-37.8 0-82.1 6.8-119.1 0-38.2-7-40.6-27.4-26.9-58.9 6.4-14.7 20.4-46.5 32.7-55.4 21.9-16 18-8.6 33.5 9.8 16.7 19.8 23.4 61.9 45.8 75.1 6.2-3.4-5.2-19.9-7.4-22.7 27-4.3 25.3-34 52.9-6.8 14.8 14.6 22.6 58.9-11.5 58.9z"/></svg>
